<svg width="110" height="110" viewBox="0 0 110 110" fill="none" xmlns="http://www.w3.org/2000/svg">
  <!-- Ultimate Buff chicken - side view (facing right) -->
  <!-- Massive body -->
  <rect x="20" y="62" width="70" height="24" fill="#FFD700"/>
  <rect x="15" y="58" width="80" height="4" fill="#FFD700"/>
  <rect x="10" y="54" width="90" height="4" fill="#FFED4E"/>
  <rect x="8" y="50" width="94" height="4" fill="#FFED4E"/>
  <rect x="10" y="46" width="90" height="4" fill="#FFED4E"/>
  <rect x="15" y="42" width="80" height="4" fill="#FFED4E"/>
  
  <!-- Six-pack abs (side profile) -->
  <rect x="60" y="50" width="12" height="6" fill="#FFB300"/>
  <rect x="60" y="58" width="12" height="6" fill="#FFB300"/>
  <rect x="60" y="66" width="12" height="6" fill="#FFB300"/>
  
  <!-- Abs definition lines -->
  <rect x="58" y="56" width="16" height="2" fill="#FF8F00"/>
  <rect x="58" y="64" width="16" height="2" fill="#FF8F00"/>
  <rect x="60" y="72" width="12" height="2" fill="#FF8F00"/>
  
  <!-- Massive chest muscles (side profile) -->
  <rect x="65" y="38" width="25" height="12" fill="#FFB300"/>
  <rect x="70" y="42" width="15" height="2" fill="#FF8F00"/>
  
  <!-- Head (profile) -->
  <rect x="35" y="28" width="40" height="4" fill="#FFED4E"/>
  <rect x="40" y="24" width="30" height="4" fill="#FFF176"/>
  <rect x="42" y="20" width="26" height="4" fill="#FFF176"/>
  
  <!-- Neck connection -->
  <rect x="40" y="32" width="30" height="4" fill="#FFED4E"/>
  <rect x="35" y="36" width="40" height="4" fill="#FFD700"/>
  
  <!-- Epic Crown Comb (side view) -->
  <rect x="48" y="12" width="2" height="8" fill="#F44336"/>
  <rect x="50" y="8" width="2" height="12" fill="#F44336"/>
  <rect x="52" y="4" width="2" height="16" fill="#F44336"/>
  <rect x="54" y="2" width="2" height="18" fill="#F44336"/>
  <rect x="56" y="4" width="2" height="16" fill="#F44336"/>
  <rect x="58" y="8" width="2" height="12" fill="#F44336"/>
  <rect x="60" y="12" width="2" height="8" fill="#F44336"/>
  
  <!-- Single eye (side view) -->
  <rect x="62" y="26" width="4" height="2" fill="#333333"/>
  
  <!-- Side beak (pointing right) -->
  <rect x="75" y="30" width="10" height="4" fill="#333333"/>
  <rect x="76" y="31" width="8" height="2" fill="#FF9800"/>
  
  <!-- Massive bicep and wing (side view) -->
  <rect x="60" y="36" width="30" height="16" fill="#FFC107"/>
  <rect x="55" y="30" width="20" height="12" fill="#FFB300"/> <!-- Bicep -->
  <rect x="57" y="28" width="16" height="6" fill="#FF8F00"/> <!-- Bicep definition -->
  <rect x="59" y="34" width="12" height="2" fill="#FF6F00"/> <!-- Muscle peak -->
  
  <!-- Shoulder muscles -->
  <rect x="80" y="34" width="15" height="8" fill="#FFB300"/>
  
  <!-- Epic tail feathers (side view) -->
  <rect x="2" y="44" width="18" height="8" fill="#FFC107"/>
  <rect x="0" y="46" width="12" height="6" fill="#FFD54F"/>
  
  <!-- Massive feet (side view) -->
  <rect x="35" y="86" width="12" height="12" fill="#FF9800"/>
  <rect x="63" y="86" width="12" height="12" fill="#FF9800"/>
</svg>